<svg version="1.2" xmlns="http://www.w3.org/2000/svg" viewBox="0 0 398 399" width="398" height="399">
	<title>New Project</title>
	<style>
		.s0 { fill: #ffffff } 
	</style>
	<path id="Shape 1" fill-rule="evenodd" class="s0" d="m220.6 14c-4-8.6-12.4-14-21.7-14-9.2 0-17.6 5.4-21.6 14l-48.3 103-107.9 16.5c-9 1.4-16.5 7.9-19.3 16.9-2.8 8.9-0.5 18.8 5.9 25.4l78.3 80.2-18.5 113.4c-1.5 9.4 2.3 18.8 9.7 24.4 7.4 5.5 17.3 6.2 25.4 1.8l96.4-53.3 96.4 53.3c8.1 4.4 18 3.8 25.4-1.8 7.4-5.6 11.2-15 9.7-24.4l-18.6-113.4 78.3-80.2c6.5-6.6 8.8-16.5 5.9-25.4-2.8-9-10.2-15.5-19.3-16.9l-107.9-16.5z"/>
</svg>